PathFileType	4	(X/Y/Z)	T1_P2_Vision_Movement_3_0-736.trc
DataRate	CameraRate	NumFrames	NumMarkers	Units	OrigDataRate	OrigDataStartFrame	OrigNumFrames
60	60	5	27	m	60	184	736
Frame#	Time	RHip			RKnee			RAnkle			RBigToe			RSmallToe			RHeel			LHip			LKnee			LAnkle			LBigToe			LSmallToe			LHeel			Neck			Head			Nose			RShoulder			RElbow			RWrist			RThumb			RIndex			RPinky			LShoulder			LElbow			LWrist			LThumb			LIndex			LPinky		
		X1	Y1	Z1	X2	Y2	Z2	X3	Y3	Z3	X4	Y4	Z4	X5	Y5	Z5	X6	Y6	Z6	X7	Y7	Z7	X8	Y8	Z8	X9	Y9	Z9	X10	Y10	Z10	X11	Y11	Z11	X12	Y12	Z12	X13	Y13	Z13	X14	Y14	Z14	X15	Y15	Z15	X16	Y16	Z16	X17	Y17	Z17	X18	Y18	Z18	X19	Y19	Z19	X20	Y20	Z20	X21	Y21	Z21	X22	Y22	Z22	X23	Y23	Z23	X24	Y24	Z24	X25	Y25	Z25	X26	Y26	Z26	X27	Y27	Z27
185	3.0833333333333335	449.1353578261567	3669.9561460794525	651.233192364057	834.9528087397844	3676.0608539755704	654.0477672559095	1224.1075465833449	3761.909304928936	718.6905315938807	1288.1339926314029	3634.7047661983015	654.5128048487842	1272.4850875214377	3667.502290539238	606.3629012061853	1276.1163450206775	3804.7853597898948	758.3586741215421	463.43681800160056	3617.7568287366903	856.2693147544708	861.4984198142266	3619.576926435675	857.6533331216448	1236.3631671593241	3711.242818547456	874.0651660764902	1321.7440396399813	3614.3189473895554	812.5116968852628	1277.8702455559353	3546.8256553507867	825.8079784605446	1259.0629202752175	3724.654727803276	863.4695947449345	-113.81354159198858	3600.6612974483614	783.8838823299574	-376.7603797637943	3499.237568306302	754.5603856261754	-227.2612479098333	3466.9977708980873	725.2364127943823	-54.369427989311006	3721.8861749848247	653.5623920270835	201.05504791154854	3841.7047797460255	584.2128915460858	114.78568207020834	3641.520325835755	532.8497219994792	13.782406198598313	3495.5040145455637	503.5120768100862	41.96029675887513	3547.7406859277853	511.9431435355075	100.6277010530587	3528.192158809997	510.8330429344454	-17.266150421978207	3557.979135382196	947.7508503631291	243.2599738033687	3536.055607341741	971.9195405124893	495.58264677172184	3523.3011884460702	954.4310016371531	607.1827789779976	3530.836770113601	923.374529487062	620.2472841723124	3473.1929888704826	918.1028646306694	610.6863226700851	3427.5664646861046	948.9225028625012
186	3.1	452.1215106457238	3692.0407957880157	656.9593650007996	836.8444993681819	3702.8412832334643	662.4749731743822	1222.0795415719954	3746.702882841996	705.9778580301286	1296.0207834607977	3656.1934756751352	660.5126229204515	1285.8635716776366	3689.3513659838572	612.4662368877107	1282.6219914392836	3806.9386316852506	759.8682586779369	463.5430628402674	3618.2746870931546	856.5545591317313	863.8489694243398	3647.394761382758	868.1441681498263	1239.5370678377542	3705.535609252064	870.5895269005512	1322.0638360534745	3612.366261071865	818.2186937339369	1282.996568371746	3548.40548634091	827.6134878766285	1259.2467192664433	3725.0627811575696	863.5306663527929	-113.95843152303163	3600.9082813824452	783.952365873508	-375.25956505896687	3479.211841711892	748.4712665732566	-227.24109301279276	3467.26940822018	725.2987625294318	-54.710645773074184	3724.921008888685	649.0773202125775	200.35790839970372	3838.816622937714	583.4029958099236	114.62248887340144	3641.550800414179	532.8483399698674	10.396317481403571	3507.3754409680887	514.0622674824921	36.660640317989845	3539.592694124146	514.1378961849354	101.6093454738122	3548.333875480357	515.8036009492542	-17.267823042377575	3558.477456859979	948.0625653066609	250.00901820919907	3559.0851466941904	980.963176345728	495.5557496107948	3523.4233071771814	954.5648533792548	611.0251644920563	3532.3006492936183	924.6568886003331	624.1862243339244	3494.2399920405283	925.874051910108	610.8269745757882	3428.0807829114046	949.3851220717299
187	3.1166666666666667	452.04398004574267	3691.766187208147	656.9148128478378	836.7735978896213	3702.9747475024724	662.5915431571577	1216.4575429969948	3744.9022871138604	704.453534464628	1296.1474180402631	3657.5432019371847	660.8509959994027	1285.7954796516738	3689.9409431294166	612.7176497473141	1282.3461204752507	3807.0754490307054	760.0439523737924	466.61383459916283	3633.5352890699705	870.9757722226819	858.2537833481549	3625.6567830009885	861.2113566151679	1231.110238332823	3709.8820717914496	872.6798677192047	1321.877154717878	3615.162123710618	813.1059106020612	1277.7438020160378	3547.276743684959	826.166180185073	1258.837395186365	3725.574708502859	863.9894427565163	-114.0399670810827	3600.785252159287	783.8833235869607	-375.3862745287126	3479.318015703688	748.4170311755705	-227.35258492145977	3467.1201530750086	725.194868175284	-54.70916911267927	3724.923564576026	649.1381953636187	200.26958047830365	3838.366486130855	583.22098300998	110.28309520296746	3645.754717624814	534.9884194698274	5.353583985492296	3505.046611851773	513.3402891242087	25.775705150096705	3515.063190425058	507.3482715308795	92.18924689755751	3550.9358911685244	517.1647817330693	-21.765884280943368	3554.386231666807	946.1736486692912	247.82905175864224	3537.5505519369044	973.1076470412114	491.91017396873775	3527.7585103304996	957.2983720819919	614.9013236541224	3527.2859266057317	921.4041868596679	625.441640864972	3476.555924537605	919.6231166827757	610.8643084562052	3427.984674976699	949.6304456400036
188	3.1333333333333333	449.1610670544834	3670.259654722251	651.4330657394729	837.0082091336837	3703.1355463128716	662.6830193218307	1217.6882706599565	3757.8427309211042	717.5243806554614	1296.8313084369775	3658.311316843553	661.4793641980206	1286.15210532363	3689.9678057449214	612.6444410861183	1282.4338062383033	3806.9922953104897	760.0650611652472	466.70293944895235	3633.6220581722387	871.1191826404344	858.5155823953681	3625.7791155774357	861.4071759305943	1231.349460052003	3710.167462299057	872.8851032247137	1308.2382780435084	3590.8045891094434	803.9695695456138	1277.7520525715806	3547.070428118083	826.2915231796821	1259.1755009690057	3725.950212625101	864.2331825179364	-114.11941691559511	3601.1400872353715	783.9576234533127	-376.9246670701694	3499.25521113046	754.5533494411268	-227.3293743981047	3467.3848326364623	725.3885848685145	-59.542955932106565	3721.713205134592	647.5558656160578	204.00052477987268	3835.179981741667	576.3655615733477	103.9166276035875	3628.3026440559142	521.325913368117	0.25429201168512416	3502.528691244259	512.4596576341879	15.923195693872795	3515.22432779492	508.10799692288595	88.31662137974023	3543.371972344756	519.3602601922626	-21.810676117038902	3554.444082671995	946.2027678727959	258.00403065402156	3542.924412825965	976.2284992128538	496.75522218201	3529.149643088435	958.4884846386485	611.0713325934908	3532.0300388382398	924.6398919004068	625.2865020177833	3476.0124461747387	919.3622097454339	610.8388903771298	3427.9973727538113	949.6896773737988
189	3.15	449.0685006654872	3670.197036743951	651.4218512647424	836.7994745251779	3703.0907750670935	662.6484866829178	1217.475760248346	3758.3035725612544	717.8391587089582	1296.5902536113063	3658.117128308462	661.4727774884002	1279.9034201686657	3688.384637192278	611.3313000250076	1269.8011287717507	3800.774157358783	757.4742027493088	466.71799635823237	3633.669321813669	871.2137210902168	858.5757177252598	3626.0819398457816	861.647940698693	1231.5836002680994	3710.5762303297015	873.1868281367003	1313.438645557049	3592.626798898337	805.7200617439685	1277.7843076194292	3547.033675675219	826.2659494724323	1273.462323997166	3747.0013333287143	880.19675489435	-118.6426751959494	3605.380295734642	786.4965802659137	-377.02433228254773	3499.2048547034624	754.4912408956342	-227.42671949288095	3467.5354046764846	725.5123222755104	-59.47728221006593	3721.998464225188	647.8801963605779	198.24357657127342	3821.3041984364504	564.1366551803849	98.6935819499237	3623.9652175106885	519.7215514853831	0.1425697533527522	3503.349520177906	512.7339987568838	16.389181574479	3516.0760317289732	508.36640585725706	83.88687885602712	3553.2912094234484	518.6474312134319	-21.824729674895508	3554.787170995066	946.4843635860575	253.25901840703784	3541.5371362307646	975.3613648304424	500.28555602753323	3522.6701527192367	960.1058797089617	618.5702501562621	3540.425689886178	934.6272081594682	620.1653585134943	3472.666237276595	918.2243070871443	610.944006907617	3428.0369209261917	949.8534385158631
